<svg id="Paths" xmlns="http://www.w3.org/2000/svg" viewBox="0 0 512 512"><title>Artboard 1</title><path d="M119.76,19.5l2,4.13a1.61,1.61,0,0,0,1.21.89l4.56.66a1.61,1.61,0,0,1,.89,2.75l-3.3,3.21a1.62,1.62,0,0,0-.46,1.43l.78,4.54a1.61,1.61,0,0,1-2.34,1.7l-4.08-2.14a1.59,1.59,0,0,0-1.5,0l-4.08,2.14a1.61,1.61,0,0,1-2.33-1.7l.77-4.54a1.62,1.62,0,0,0-.46-1.43l-3.3-3.21a1.61,1.61,0,0,1,.89-2.75l4.57-.66a1.63,1.63,0,0,0,1.21-.89l2-4.13A1.61,1.61,0,0,1,119.76,19.5Z"/><path d="M440.67,431.34l4.54,8.31a1.64,1.64,0,0,0,.64.64l8.31,4.54a1.62,1.62,0,0,1,0,2.84l-8.31,4.54a1.64,1.64,0,0,0-.64.64l-4.54,8.31a1.62,1.62,0,0,1-2.84,0l-4.54-8.31a1.64,1.64,0,0,0-.64-.64l-8.31-4.54a1.62,1.62,0,0,1,0-2.84l8.31-4.54a1.64,1.64,0,0,0,.64-.64l4.54-8.31A1.62,1.62,0,0,1,440.67,431.34Z"/><path d="M411.42,221.27l2.4,11.19a1,1,0,0,0,.72.72l11.19,2.4a.94.94,0,0,1,0,1.84l-11.19,2.4a1,1,0,0,0-.72.72l-2.4,11.19a.94.94,0,0,1-1.84,0l-2.4-11.19a1,1,0,0,0-.72-.72l-11.19-2.4a.94.94,0,0,1,0-1.84l11.19-2.4a1,1,0,0,0,.72-.72l2.4-11.19A.94.94,0,0,1,411.42,221.27Z"/><path d="M123,120.2l9.48,6.32a4,4,0,0,0,3.69.39l10.59-4.22a4,4,0,0,1,5.3,4.78l-3.09,11a4,4,0,0,0,.77,3.63l7.29,8.76a4,4,0,0,1-2.9,6.53l-11.39.45a4,4,0,0,0-3.21,1.85l-6.09,9.64a4,4,0,0,1-7.1-.75l-4-10.69a4,4,0,0,0-2.76-2.48l-11-2.81a4,4,0,0,1-1.49-7l9-7.06a4,4,0,0,0,1.51-3.39l-.74-11.37A4,4,0,0,1,123,120.2Z"/><path d="M30.27,80.7l5.25,3.2a1,1,0,0,0,.57.15l6.14-.14a1,1,0,0,1,.92,1.59L40,90.76a1,1,0,0,0-.15.57L40,97.47a1.05,1.05,0,0,1-1.6.92L33.1,95.2a1,1,0,0,0-.57-.16l-6.14.15a1.06,1.06,0,0,1-.93-1.6l3.2-5.25a1,1,0,0,0,.15-.57l-.14-6.15A1.05,1.05,0,0,1,30.27,80.7Z"/><path d="M230.23,149.69l7.67,8.49a1,1,0,0,0,1,.26l10.88-3.51a.94.94,0,0,1,.92,1.59l-8.48,7.67a.93.93,0,0,0-.27,1l3.52,10.89a.94.94,0,0,1-1.59.92l-7.68-8.49a.94.94,0,0,0-1-.26l-10.89,3.51a.94.94,0,0,1-.92-1.59l8.49-7.67a.93.93,0,0,0,.26-1l-3.51-10.89A.94.94,0,0,1,230.23,149.69Z"/><path d="M354.34,421.88l-.23,3.52a1.24,1.24,0,0,0,.47,1l2.77,2.19a1.23,1.23,0,0,1-.46,2.16l-3.42.87a1.22,1.22,0,0,0-.85.77l-1.22,3.3a1.23,1.23,0,0,1-2.2.23l-1.88-3a1.26,1.26,0,0,0-1-.57l-3.52-.14a1.23,1.23,0,0,1-.9-2l2.25-2.71a1.23,1.23,0,0,0,.24-1.12l-.95-3.4a1.23,1.23,0,0,1,1.64-1.48l3.27,1.31a1.21,1.21,0,0,0,1.14-.12l2.94-2A1.23,1.23,0,0,1,354.34,421.88Z"/><path d="M298.53,248.87l-4.08,12.66a1.08,1.08,0,0,0,.3,1.15l9.87,8.92a1.09,1.09,0,0,1-1.06,1.85l-12.67-4.08a1.08,1.08,0,0,0-1.14.31l-8.93,9.87a1.09,1.09,0,0,1-1.85-1.07l4.09-12.67a1.09,1.09,0,0,0-.31-1.14l-9.87-8.93a1.09,1.09,0,0,1,1.07-1.85L286.61,258a1.1,1.1,0,0,0,1.15-.31l8.92-9.87A1.09,1.09,0,0,1,298.53,248.87Z"/><path d="M419.18,310.41l7.6,13.89a2.75,2.75,0,0,0,1.07,1.07l13.89,7.6a2.7,2.7,0,0,1,0,4.74l-13.89,7.6a2.75,2.75,0,0,0-1.07,1.07l-7.6,13.89a2.7,2.7,0,0,1-4.74,0l-7.6-13.89a2.75,2.75,0,0,0-1.07-1.07l-13.89-7.6a2.7,2.7,0,0,1,0-4.74l13.89-7.6a2.75,2.75,0,0,0,1.07-1.07l7.6-13.89A2.7,2.7,0,0,1,419.18,310.41Z"/><path d="M209.9,48.39l6.69,12.23a2.3,2.3,0,0,0,.94.94l12.23,6.69a2.38,2.38,0,0,1,0,4.18l-12.23,6.69a2.3,2.3,0,0,0-.94.94L209.9,92.29a2.38,2.38,0,0,1-4.18,0L199,80.06a2.32,2.32,0,0,0-.95-.94l-12.23-6.69a2.38,2.38,0,0,1,0-4.18l12.23-6.69a2.32,2.32,0,0,0,.95-.94l6.68-12.23A2.38,2.38,0,0,1,209.9,48.39Z"/><path d="M53.49,388.55l-.19,8.37a1.32,1.32,0,0,0,.21.77l4.35,7.16A1.43,1.43,0,0,1,56.61,407l-8.38-.19a1.39,1.39,0,0,0-.77.2l-7.16,4.36a1.43,1.43,0,0,1-2.17-1.26l.19-8.37a1.39,1.39,0,0,0-.2-.77l-4.36-7.16A1.43,1.43,0,0,1,35,391.66l8.37.19a1.37,1.37,0,0,0,.78-.21l7.15-4.35A1.43,1.43,0,0,1,53.49,388.55Z"/><path d="M226.67,446.71l-.18,7.47a1.31,1.31,0,0,0,.19.69l3.88,6.38a1.27,1.27,0,0,1-1.12,1.94L222,463a1.22,1.22,0,0,0-.69.19l-6.38,3.88A1.27,1.27,0,0,1,213,466l.17-7.47a1.22,1.22,0,0,0-.19-.69l-3.88-6.38a1.28,1.28,0,0,1,1.12-1.94l7.47.17a1.31,1.31,0,0,0,.69-.19l6.39-3.88A1.28,1.28,0,0,1,226.67,446.71Z"/><path d="M421.16,91.17l6,3.68a1.17,1.17,0,0,0,.66.17l7.06-.16A1.21,1.21,0,0,1,436,96.69l-3.68,6a1.15,1.15,0,0,0-.17.65l.16,7.07a1.21,1.21,0,0,1-1.83,1.06l-6-3.68a1.13,1.13,0,0,0-.65-.17l-7.07.16a1.2,1.2,0,0,1-1.05-1.83l3.67-6a1.15,1.15,0,0,0,.17-.65l-.16-7.07A1.21,1.21,0,0,1,421.16,91.17Z"/><path d="M323.08,172.43l10,6.11a2,2,0,0,0,1.09.29l11.75-.27a2,2,0,0,1,1.76,3.05l-6.11,10a2,2,0,0,0-.29,1.09l.27,11.75a2,2,0,0,1-3,1.76l-10-6.11a2,2,0,0,0-1.09-.29l-11.74.27a2,2,0,0,1-1.76-3.05l6.1-10a2.11,2.11,0,0,0,.3-1.09L320,174.19A2,2,0,0,1,323.08,172.43Z"/><path d="M107.92,464.84l4.09,2.74a1.72,1.72,0,0,0,1.59.16l4.57-1.82a1.72,1.72,0,0,1,2.29,2.07l-1.33,4.73a1.71,1.71,0,0,0,.33,1.57l3.15,3.78a1.72,1.72,0,0,1-1.26,2.82l-4.92.19a1.73,1.73,0,0,0-1.38.8L112.42,486a1.71,1.71,0,0,1-3.06-.32l-1.71-4.61a1.7,1.7,0,0,0-1.19-1.08l-4.77-1.21a1.71,1.71,0,0,1-.64-3l3.87-3.05a1.75,1.75,0,0,0,.65-1.46l-.32-4.91A1.72,1.72,0,0,1,107.92,464.84Z"/><path d="M104.57,248.86l4.77,5.27a.59.59,0,0,0,.61.17l6.77-2.19a.58.58,0,0,1,.57,1L112,257.87a.58.58,0,0,0-.17.61l2.19,6.77a.58.58,0,0,1-1,.57l-4.77-5.27a.58.58,0,0,0-.61-.17l-6.77,2.19a.58.58,0,0,1-.57-1l5.27-4.77a.59.59,0,0,0,.17-.61l-2.18-6.77A.58.58,0,0,1,104.57,248.86Z"/><path d="M227,335.7l7.68,8.48a.92.92,0,0,0,1,.26l10.89-3.51a.94.94,0,0,1,.92,1.59L239,350.19a.94.94,0,0,0-.26,1l3.51,10.89a.94.94,0,0,1-1.59.91L233,354.5a1,1,0,0,0-1-.27l-10.89,3.52a.94.94,0,0,1-.91-1.59l8.48-7.68a.93.93,0,0,0,.27-1l-3.52-10.89A.94.94,0,0,1,227,335.7Z"/><path d="M145.33,310.75l-.68,10.33a3.63,3.63,0,0,0,1.37,3.07l8.13,6.41a3.62,3.62,0,0,1-1.35,6.35l-10,2.55a3.6,3.6,0,0,0-2.5,2.25l-3.59,9.71a3.62,3.62,0,0,1-6.45.68l-5.52-8.75a3.64,3.64,0,0,0-2.92-1.69l-10.34-.41a3.62,3.62,0,0,1-2.64-5.92l6.62-8a3.63,3.63,0,0,0,.7-3.29l-2.81-10a3.62,3.62,0,0,1,4.82-4.34l9.62,3.83a3.61,3.61,0,0,0,3.34-.35l8.61-5.75A3.62,3.62,0,0,1,145.33,310.75Z"/><path d="M223.39,243.64l-.47,7.26a2.56,2.56,0,0,0,1,2.16l5.72,4.51a2.54,2.54,0,0,1-.95,4.46l-7.06,1.79a2.54,2.54,0,0,0-1.75,1.59l-2.52,6.82a2.55,2.55,0,0,1-4.54.48l-3.88-6.15a2.58,2.58,0,0,0-2.05-1.19l-7.28-.29a2.54,2.54,0,0,1-1.85-4.16l4.65-5.6a2.51,2.51,0,0,0,.49-2.31l-2-7a2.54,2.54,0,0,1,3.39-3.05l6.76,2.7a2.55,2.55,0,0,0,2.35-.25l6.05-4A2.54,2.54,0,0,1,223.39,243.64Z"/><path d="M301.33,72.45l2.15,4.35a1.68,1.68,0,0,0,1.27.93l4.8.69a1.7,1.7,0,0,1,.94,2.89L307,84.7a1.68,1.68,0,0,0-.49,1.5l.82,4.77a1.7,1.7,0,0,1-2.46,1.79L300.6,90.5a1.7,1.7,0,0,0-1.58,0l-4.29,2.26A1.7,1.7,0,0,1,292.27,91l.82-4.77a1.67,1.67,0,0,0-.48-1.5l-3.47-3.39a1.69,1.69,0,0,1,.93-2.89l4.8-.69a1.71,1.71,0,0,0,1.28-.93l2.14-4.35A1.7,1.7,0,0,1,301.33,72.45Z"/><path d="M451.19,32.33l2,4a1.54,1.54,0,0,0,1.16.84l4.37.64a1.54,1.54,0,0,1,.85,2.63l-3.16,3.08a1.52,1.52,0,0,0-.44,1.36l.74,4.35a1.54,1.54,0,0,1-2.23,1.63l-3.91-2a1.53,1.53,0,0,0-1.44,0l-3.9,2A1.54,1.54,0,0,1,443,49.19l.74-4.35a1.52,1.52,0,0,0-.44-1.36l-3.16-3.08a1.54,1.54,0,0,1,.85-2.63l4.37-.64a1.52,1.52,0,0,0,1.16-.84l2-4A1.54,1.54,0,0,1,451.19,32.33Z"/><path d="M31.91,224.92,38,229a2.54,2.54,0,0,0,2.35.24l6.76-2.69a2.54,2.54,0,0,1,3.39,3l-2,7a2.52,2.52,0,0,0,.49,2.32l4.65,5.6a2.54,2.54,0,0,1-1.86,4.16l-7.27.29a2.54,2.54,0,0,0-2,1.18l-3.88,6.16A2.55,2.55,0,0,1,34,255.8L31.52,249a2.54,2.54,0,0,0-1.76-1.58l-7-1.79a2.55,2.55,0,0,1-.95-4.47l5.72-4.5a2.58,2.58,0,0,0,1-2.16L28,227.2A2.54,2.54,0,0,1,31.91,224.92Z"/></svg>