<?xml version="1.0" encoding="utf-8"?>
<!-- Generator: Adobe Illustrator 24.0.0, SVG Export Plug-In . SVG Version: 6.00 Build 0)  -->
<svg version="1.1" id="Layer_1" xmlns="http://www.w3.org/2000/svg" xmlns:xlink="http://www.w3.org/1999/xlink" x="0px" y="0px"
	 viewBox="0 0 300 300" enable-background="new 0 0 300 300" xml:space="preserve">
<pattern  width="100" height="100" patternUnits="userSpaceOnUse" id="Stars_Pattern" viewBox="0 -100 100 100" overflow="visible">
	<g>
		<rect y="-100" fill="none" width="100" height="100"/>
		<path d="M25.4-97.6l0.4,0.8c0,0.1,0.1,0.2,0.2,0.2l0.9,0.1c0.3,0,0.4,0.4,0.2,0.6l-0.7,0.7c-0.1,0.1-0.1,0.2-0.1,0.3l0.2,0.9
			c0,0.3-0.2,0.5-0.5,0.3l-0.8-0.4c-0.1-0.1-0.2-0.1-0.3,0l-0.8,0.4c-0.2,0.1-0.5-0.1-0.5-0.3l0.2-0.9c0-0.1,0-0.2-0.1-0.3L23-95.9
			c-0.2-0.2-0.1-0.5,0.2-0.6l0.9-0.1c0.1,0,0.2-0.1,0.2-0.2l0.4-0.8C24.9-97.8,25.3-97.8,25.4-97.6z"/>
		<path d="M90.9-13.6l0.9,1.7c0,0.1,0.1,0.1,0.1,0.1l1.7,0.9c0.2,0.1,0.2,0.5,0,0.6l-1.7,0.9c-0.1,0-0.1,0.1-0.1,0.1l-0.9,1.7
			c-0.1,0.2-0.5,0.2-0.6,0l-0.9-1.7c0-0.1-0.1-0.1-0.1-0.1l-1.7-0.9c-0.2-0.1-0.2-0.5,0-0.6l1.7-0.9c0.1,0,0.1-0.1,0.1-0.1l0.9-1.7
			C90.4-13.8,90.7-13.8,90.9-13.6z"/>
		<path d="M84.9-56.4l0.5,2.3c0,0.1,0.1,0.1,0.1,0.1l2.3,0.5c0.2,0,0.2,0.3,0,0.4l-2.3,0.5c-0.1,0-0.1,0.1-0.1,0.1l-0.5,2.3
			c0,0.2-0.3,0.2-0.4,0L84-52.5c0-0.1-0.1-0.1-0.1-0.1l-2.3-0.5c-0.2,0-0.2-0.3,0-0.4l2.3-0.5c0.1,0,0.1-0.1,0.1-0.1l0.5-2.3
			C84.6-56.6,84.8-56.6,84.9-56.4z"/>
		<path d="M26-77l1.9,1.3c0.2,0.1,0.5,0.2,0.8,0.1l2.2-0.9c0.6-0.2,1.3,0.3,1.1,1l-0.6,2.2c-0.1,0.3,0,0.5,0.2,0.7l1.5,1.8
			c0.4,0.5,0.1,1.3-0.6,1.3l-2.3,0.1c-0.3,0-0.5,0.2-0.7,0.4l-1.2,2c-0.4,0.6-1.2,0.5-1.4-0.2l-0.8-2.2c-0.1-0.3-0.3-0.4-0.6-0.5
			l-2.3-0.6c-0.7-0.2-0.8-1-0.3-1.4l1.8-1.4c0.2-0.2,0.3-0.4,0.3-0.7l-0.2-2.3C24.7-77,25.5-77.4,26-77z"/>
		<path d="M7.1-85.1l1.1,0.7c0,0,0.1,0,0.1,0l1.3,0c0.2,0,0.3,0.2,0.2,0.3L9.1-83c0,0,0,0.1,0,0.1l0,1.3c0,0.2-0.2,0.3-0.3,0.2
			l-1.1-0.7c0,0-0.1,0-0.1,0l-1.3,0c-0.2,0-0.3-0.2-0.2-0.3l0.7-1.1c0,0,0-0.1,0-0.1l0-1.3C6.8-85.1,7-85.2,7.1-85.1z"/>
		<path d="M47.9-71l1.6,1.7c0.1,0.1,0.1,0.1,0.2,0.1l2.2-0.7c0.2-0.1,0.3,0.2,0.2,0.3l-1.7,1.6c-0.1,0.1-0.1,0.1-0.1,0.2l0.7,2.2
			c0.1,0.2-0.2,0.3-0.3,0.2l-1.6-1.7c-0.1-0.1-0.1-0.1-0.2-0.1l-2.2,0.7c-0.2,0.1-0.3-0.2-0.2-0.3l1.7-1.6c0.1-0.1,0.1-0.1,0.1-0.2
			l-0.7-2.2C47.5-71,47.8-71.2,47.9-71z"/>
		<path d="M73.2-15.5l0,0.7c0,0.1,0,0.2,0.1,0.2l0.6,0.4c0.2,0.1,0.1,0.4-0.1,0.4l-0.7,0.2c-0.1,0-0.1,0.1-0.2,0.2l-0.2,0.7
			c-0.1,0.2-0.3,0.2-0.4,0l-0.4-0.6c0-0.1-0.1-0.1-0.2-0.1l-0.7,0c-0.2,0-0.3-0.3-0.2-0.4l0.5-0.6c0.1-0.1,0.1-0.1,0-0.2L71-15.3
			c-0.1-0.2,0.1-0.4,0.3-0.3l0.7,0.3c0.1,0,0.2,0,0.2,0l0.6-0.4C73-15.8,73.3-15.7,73.2-15.5z"/>
		<path d="M61.9-50.8L61-48.2c0,0.1,0,0.2,0.1,0.2l2,1.8c0.2,0.2,0,0.5-0.2,0.4l-2.6-0.8c-0.1,0-0.2,0-0.2,0.1l-1.8,2
			c-0.2,0.2-0.5,0-0.4-0.2l0.8-2.6c0-0.1,0-0.2-0.1-0.2l-2-1.8c-0.2-0.2,0-0.5,0.2-0.4l2.6,0.8c0.1,0,0.2,0,0.2-0.1l1.8-2
			C61.6-51.2,61.9-51,61.9-50.8z"/>
		<path d="M86.5-38.2l1.5,2.8c0.1,0.1,0.1,0.2,0.2,0.2l2.8,1.5c0.4,0.2,0.4,0.8,0,1l-2.8,1.5c-0.1,0.1-0.2,0.1-0.2,0.2l-1.5,2.8
			c-0.2,0.4-0.8,0.4-1,0L84-30.9c-0.1-0.1-0.1-0.2-0.2-0.2l-2.8-1.5c-0.4-0.2-0.4-0.8,0-1l2.8-1.5c0.1-0.1,0.2-0.1,0.2-0.2l1.5-2.8
			C85.7-38.6,86.3-38.6,86.5-38.2z"/>
		<path d="M43.8-91.7l1.4,2.5c0,0.1,0.1,0.1,0.2,0.2l2.5,1.4c0.3,0.2,0.3,0.7,0,0.9l-2.5,1.4c-0.1,0-0.1,0.1-0.2,0.2l-1.4,2.5
			c-0.2,0.3-0.7,0.3-0.9,0l-1.4-2.5c0-0.1-0.1-0.1-0.2-0.2l-2.5-1.4c-0.3-0.2-0.3-0.7,0-0.9l2.5-1.4c0.1,0,0.1-0.1,0.2-0.2l1.4-2.5
			C43.1-92,43.6-92,43.8-91.7z"/>
		<path d="M11.9-22.3l0,1.7c0,0.1,0,0.1,0,0.2l0.9,1.5c0.1,0.2,0,0.4-0.3,0.4l-1.7,0c-0.1,0-0.1,0-0.2,0l-1.5,0.9
			c-0.2,0.1-0.4,0-0.4-0.3l0-1.7c0-0.1,0-0.1,0-0.2l-0.9-1.5c-0.1-0.2,0-0.4,0.3-0.4l1.7,0c0.1,0,0.1,0,0.2,0l1.5-0.9
			C11.6-22.7,11.9-22.5,11.9-22.3z"/>
		<path d="M47.2-10.4l0,1.5c0,0,0,0.1,0,0.1L48-7.5c0.1,0.2,0,0.4-0.2,0.4l-1.5,0c0,0-0.1,0-0.1,0l-1.3,0.8c-0.2,0.1-0.4,0-0.4-0.2
			l0-1.5c0,0,0-0.1,0-0.1l-0.8-1.3c-0.1-0.2,0-0.4,0.2-0.4l1.5,0c0,0,0.1,0,0.1,0l1.3-0.8C47-10.8,47.2-10.6,47.2-10.4z"/>
		<path d="M86.9-83l1.2,0.7c0,0,0.1,0,0.1,0l1.4,0c0.2,0,0.3,0.2,0.2,0.4l-0.7,1.2c0,0,0,0.1,0,0.1l0,1.4c0,0.2-0.2,0.3-0.4,0.2
			l-1.2-0.7c0,0-0.1,0-0.1,0l-1.4,0c-0.2,0-0.3-0.2-0.2-0.4l0.7-1.2c0,0,0-0.1,0-0.1l0-1.4C86.5-82.9,86.7-83.1,86.9-83z"/>
		<path d="M66.9-66.4l2,1.2c0.1,0,0.1,0.1,0.2,0.1l2.4-0.1c0.3,0,0.5,0.3,0.4,0.6l-1.2,2c0,0.1-0.1,0.1-0.1,0.2l0.1,2.4
			c0,0.3-0.3,0.5-0.6,0.4l-2-1.2c-0.1,0-0.1-0.1-0.2-0.1l-2.4,0.1c-0.3,0-0.5-0.3-0.4-0.6l1.2-2c0-0.1,0.1-0.1,0.1-0.2L66.2-66
			C66.2-66.3,66.6-66.5,66.9-66.4z"/>
		<path d="M23-6.7l0.8,0.6c0.1,0.1,0.2,0.1,0.3,0l0.9-0.4c0.3-0.1,0.5,0.1,0.5,0.4l-0.3,1c0,0.1,0,0.2,0.1,0.3L26-4
			c0.2,0.2,0,0.6-0.3,0.6l-1,0c-0.1,0-0.2,0.1-0.3,0.2l-0.5,0.8c-0.2,0.2-0.5,0.2-0.6-0.1l-0.3-0.9c0-0.1-0.1-0.2-0.2-0.2l-1-0.2
			c-0.3-0.1-0.4-0.4-0.1-0.6l0.8-0.6c0.1-0.1,0.1-0.2,0.1-0.3l-0.1-1C22.4-6.7,22.7-6.9,23-6.7z"/>
		<path d="M22.3-50.8l1,1.1c0,0,0.1,0,0.1,0l1.4-0.4c0.1,0,0.2,0.1,0.1,0.2l-1.1,1c0,0,0,0.1,0,0.1l0.4,1.4c0,0.1-0.1,0.2-0.2,0.1
			l-1-1.1c0,0-0.1,0-0.1,0L21.5-48c-0.1,0-0.2-0.1-0.1-0.2l1.1-1c0,0,0-0.1,0-0.1l-0.4-1.4C22.1-50.8,22.2-50.9,22.3-50.8z"/>
		<path d="M47.3-33.1l1.6,1.7c0.1,0.1,0.1,0.1,0.2,0.1l2.2-0.7c0.2-0.1,0.3,0.2,0.2,0.3l-1.7,1.6c-0.1,0.1-0.1,0.1-0.1,0.2l0.7,2.2
			c0.1,0.2-0.2,0.3-0.3,0.2l-1.6-1.7c-0.1-0.1-0.1-0.1-0.2-0.1l-2.2,0.7c-0.2,0.1-0.3-0.2-0.2-0.3l1.7-1.6c0.1-0.1,0.1-0.1,0.1-0.2
			l-0.7-2.2C46.9-33.1,47.1-33.2,47.3-33.1z"/>
		<path d="M30.6-38.2l-0.1,2.1c0,0.2,0.1,0.5,0.3,0.6l1.7,1.3c0.5,0.4,0.3,1.1-0.3,1.3l-2,0.5c-0.2,0.1-0.4,0.2-0.5,0.5l-0.7,2
			c-0.2,0.6-1,0.7-1.3,0.1l-1.1-1.8c-0.1-0.2-0.4-0.3-0.6-0.3l-2.1-0.1c-0.6,0-0.9-0.7-0.5-1.2l1.3-1.6c0.2-0.2,0.2-0.4,0.1-0.7
			l-0.6-2c-0.2-0.6,0.4-1.1,1-0.9l2,0.8c0.2,0.1,0.5,0.1,0.7-0.1l1.8-1.2C30-39.2,30.6-38.8,30.6-38.2z"/>
		<path d="M46.5-51.9l-0.1,1.5c0,0.2,0.1,0.3,0.2,0.4l1.2,0.9c0.3,0.3,0.2,0.8-0.2,0.9l-1.4,0.4c-0.2,0-0.3,0.2-0.4,0.3L45.3-46
			c-0.1,0.4-0.7,0.5-0.9,0.1l-0.8-1.3c-0.1-0.1-0.2-0.2-0.4-0.2l-1.5-0.1c-0.4,0-0.7-0.5-0.4-0.8l0.9-1.1c0.1-0.1,0.1-0.3,0.1-0.5
			l-0.4-1.4c-0.1-0.4,0.3-0.8,0.7-0.6l1.4,0.5c0.2,0.1,0.3,0,0.5-0.1l1.2-0.8C46.1-52.6,46.6-52.3,46.5-51.9z"/>
		<path d="M62.4-86.8l0.4,0.9c0.1,0.1,0.1,0.2,0.3,0.2l1,0.1c0.3,0,0.4,0.4,0.2,0.6l-0.7,0.7c-0.1,0.1-0.1,0.2-0.1,0.3l0.2,1
			c0,0.3-0.2,0.5-0.5,0.4l-0.9-0.5c-0.1-0.1-0.2-0.1-0.3,0l-0.9,0.5c-0.3,0.1-0.5-0.1-0.5-0.4l0.2-1c0-0.1,0-0.2-0.1-0.3L59.9-85
			c-0.2-0.2-0.1-0.5,0.2-0.6l1-0.1c0.1,0,0.2-0.1,0.3-0.2l0.4-0.9C61.9-87,62.3-87,62.4-86.8z"/>
		<path d="M93-95l0.4,0.8c0,0.1,0.1,0.2,0.2,0.2l0.9,0.1c0.3,0,0.4,0.4,0.2,0.5l-0.6,0.6c-0.1,0.1-0.1,0.2-0.1,0.3l0.2,0.9
			c0,0.3-0.2,0.5-0.5,0.3l-0.8-0.4c-0.1,0-0.2,0-0.3,0l-0.8,0.4c-0.2,0.1-0.5-0.1-0.5-0.3l0.2-0.9c0-0.1,0-0.2-0.1-0.3l-0.6-0.6
			c-0.2-0.2-0.1-0.5,0.2-0.5l0.9-0.1c0.1,0,0.2-0.1,0.2-0.2l0.4-0.8C92.6-95.2,92.9-95.2,93-95z"/>
		<path d="M7.5-55.7l1.2,0.8c0.1,0.1,0.3,0.1,0.5,0.1l1.4-0.5c0.4-0.2,0.8,0.2,0.7,0.6l-0.4,1.4c0,0.2,0,0.3,0.1,0.5l0.9,1.1
			c0.3,0.3,0.1,0.8-0.4,0.8L10-50.8c-0.2,0-0.3,0.1-0.4,0.2l-0.8,1.3c-0.2,0.4-0.8,0.3-0.9-0.1l-0.5-1.4C7.3-50.9,7.2-51,7-51.1
			l-1.4-0.4c-0.4-0.1-0.5-0.6-0.2-0.9l1.2-0.9c0.1-0.1,0.2-0.3,0.2-0.4l-0.1-1.5C6.6-55.6,7.1-55.9,7.5-55.7z"/>
	</g>
</pattern>
<rect x="0" fill="url(#Stars_Pattern)" width="300" height="300"/>
</svg>
